<?xml version="1.0" encoding="UTF-8" standalone="no"?>
<svg width="149px" height="38px" viewBox="0 0 149 38" version="1.1" xmlns="http://www.w3.org/2000/svg" xmlns:xlink="http://www.w3.org/1999/xlink" xmlns:sketch="http://www.bohemiancoding.com/sketch/ns">
    <!-- Generator: Sketch 3.4.4 (17249) - http://www.bohemiancoding.com/sketch -->
    <title>Group</title>
    <desc>Created with Sketch.</desc>
    <defs></defs>
    <g id="본게임" stroke="none" stroke-width="1" fill="none" fill-rule="evenodd" sketch:type="MSPage">
        <g id="Artboard-1-Copy-4" sketch:type="MSArtboardGroup" transform="translate(-21.000000, -16.000000)">
            <g id="Group" sketch:type="MSLayerGroup" transform="translate(21.000000, 16.000000)">
                <path d="M25.1999934,27.3376991 C25.1999934,27.8092899 25.0370681,28.207683 24.711977,28.5344035 C24.386506,28.861124 23.9945737,29.0242936 23.5361801,29.0242936 C23.066393,29.0242936 22.672182,28.861124 22.352028,28.5344035 C22.031874,28.207683 21.8719869,27.8092899 21.8719869,27.3376991 L21.8719869,18.1986749 C21.8719869,17.6847668 21.7732443,17.1975453 21.5761388,16.7370105 C21.3782737,16.2768569 21.1090102,15.8727452 20.7679683,15.5246754 C20.4265467,15.1766056 20.0239806,14.9009709 19.5598902,14.6973901 C19.0961796,14.4941905 18.5971495,14.3920189 18.0639393,14.3920189 C17.5413629,14.3920189 17.0503082,14.4941905 16.5919145,14.6973901 C16.133141,14.9009709 15.7305749,15.1739369 15.3838364,15.5166694 C15.0370978,15.8594019 14.7651758,16.2608449 14.5680703,16.7209985 C14.370585,17.1815333 14.2718424,17.6744734 14.2718424,18.1986749 L14.2718424,27.3376991 C14.2718424,27.8092899 14.1092968,28.207683 13.7838259,28.5344035 C13.458355,28.861124 13.0664227,29.0242936 12.608029,29.0242936 C12.138242,29.0242936 11.7413726,28.861124 11.4159016,28.5344035 C11.0904307,28.207683 10.9278852,27.8092899 10.9278852,27.3376991 L10.9278852,18.1986749 C10.9278852,17.6744734 10.8264841,17.1815333 10.6240617,16.7209985 C10.4212595,16.2608449 10.1493375,15.8594019 9.80791584,15.5166694 C9.4664942,15.1739369 9.06658654,14.9009709 8.60781307,14.6973901 C8.14903961,14.4941905 7.65836468,14.3920189 7.13616806,14.3920189 C6.61321189,14.3920189 6.12253696,14.4915219 5.66414327,14.6893841 C5.20536981,14.8876276 4.80242391,15.1605936 4.45606514,15.5082822 C4.10932658,15.8567332 3.83702478,16.2608449 3.6399193,16.7209985 C3.44243403,17.1815333 3.34407118,17.6744734 3.34407118,18.1986749 L3.34407118,27.3376991 C3.34407118,27.8092899 3.18114583,28.207683 2.8560547,28.5344035 C2.53058379,28.861124 2.13827172,29.0242936 1.67987803,29.0242936 C1.21047075,29.0242936 0.813221538,28.861124 0.488130408,28.5344035 C0.162279719,28.207683 0.000113933807,27.8092899 0.000113933807,27.3376991 L0.000113933807,12.7058056 C0.000113933807,12.245652 0.162279719,11.852215 0.488130408,11.5251132 C0.813221538,11.198774 1.20515384,11.0352231 1.6639273,11.0352231 C2.03725041,11.0352231 2.36803823,11.1396822 2.65591098,11.3486003 C2.94416351,11.5575184 3.141269,11.8331531 3.247987,12.1758856 C4.38922397,11.4156981 5.68503114,11.0352231 7.13616806,11.0352231 C8.20220872,11.0352231 9.205206,11.2468099 10.1440206,11.6696022 C11.0824554,12.093157 11.9039181,12.7324923 12.608029,13.5891328 C14.0903079,11.8865263 15.9090712,11.0352231 18.0639393,11.0352231 C19.0342756,11.0352231 19.9544809,11.2258418 20.8241757,11.6055543 C21.6931108,11.9856481 22.4503909,12.4999374 23.0960158,13.1472786 C23.7412609,13.7953823 24.2532035,14.5555698 24.6318435,15.4282223 C25.0104835,16.3012561 25.1999934,17.2246132 25.1999934,18.1986749 L25.1999934,27.3376991 Z" id="Fill-1" fill="#6C6C6C" sketch:type="MSShapeGroup"></path>
                <path d="M36.3355799,14.3922095 C35.5460186,14.3922095 34.8100062,14.5424171 34.1275427,14.8420697 C33.4446995,15.1417223 32.8526234,15.5462153 32.3516945,16.0544048 C31.8500059,16.5633568 31.4527567,17.1603747 31.1595671,17.8454584 C30.8659976,18.5309233 30.7194028,19.2587056 30.7194028,20.029949 C30.7194028,20.8008111 30.8659976,21.5289747 31.1595671,22.2140584 C31.4527567,22.8995233 31.8500059,23.4965412 32.3516945,24.0051119 C32.8526234,24.5136827 33.4446995,24.9181756 34.1275427,25.217447 C34.8100062,25.5174809 35.5460186,25.6673072 36.3355799,25.6673072 C37.1141276,25.6673072 37.8448231,25.5174809 38.5276664,25.217447 C39.2101299,24.9181756 39.8048644,24.511014 40.31149,23.9971059 C40.8181157,23.4828166 41.2180233,22.88618 41.5115928,22.2060524 C41.8047825,21.526306 41.9517571,20.8008111 41.9517571,20.029949 C41.9517571,19.2587056 41.8047825,18.533592 41.5115928,17.8534644 C41.2180233,17.173718 40.8181157,16.5767001 40.31149,16.0624108 C39.8048644,15.5485027 39.2101299,15.1417223 38.5276664,14.8420697 C37.8448231,14.5424171 37.1141276,14.3922095 36.3355799,14.3922095 M45.2957143,20.029949 C45.2957143,22.5354415 44.4207027,24.655503 42.6714389,26.3901334 C40.9009076,28.1464944 38.7889546,29.024103 36.3355799,29.024103 C33.8609376,29.024103 31.7486048,28.1464944 29.9997209,26.3901334 C28.2500774,24.6341537 27.3754455,22.5140922 27.3754455,20.029949 C27.3754455,17.5458057 28.2500774,15.4257442 29.9997209,13.6693833 C31.7486048,11.9134036 33.8609376,11.0354137 36.3355799,11.0354137 C38.7889546,11.0354137 40.9009076,11.9134036 42.6714389,13.6693833 C43.5460708,14.5477544 44.1996711,15.5164788 44.6314802,16.5767001 C45.0636691,17.6365402 45.2847007,18.7878774 45.2957143,20.029949" id="Fill-3" fill="#6C6C6C" sketch:type="MSShapeGroup"></path>
                <path d="M61.4711248,20.0297584 C61.4711248,19.2588962 61.3241502,18.5337826 61.0309605,17.8532737 C60.7373911,17.1735274 60.3374834,16.5765095 59.8312375,16.0626014 C59.3242321,15.5486933 58.7294976,15.141913 58.0470341,14.8418791 C57.3641908,14.5422264 56.6334953,14.3920189 55.8549477,14.3920189 C55.0653864,14.3920189 54.329374,14.5422264 53.6472902,14.8418791 C52.964447,15.141913 52.3723709,15.5464059 51.8710622,16.0545954 C51.3693737,16.5631662 50.9725042,17.1605653 50.6793146,17.8452678 C50.3853653,18.5307327 50.2391503,19.2588962 50.2391503,20.0297584 C50.2391503,20.8006205 50.3853653,21.5291653 50.6793146,22.214249 C50.9725042,22.8997139 51.3693737,23.4967318 51.8710622,24.0049213 C52.3723709,24.5138733 52.964447,24.917985 53.6472902,25.2176376 C54.329374,25.5176715 55.0653864,25.6674978 55.8549477,25.6674978 C56.6334953,25.6674978 57.3641908,25.5176715 58.0470341,25.2176376 C58.7294976,24.917985 59.3242321,24.5108234 59.8312375,23.9969153 C60.3374834,23.4830072 60.7373911,22.8863706 61.0309605,22.206243 C61.3241502,21.5261154 61.4711248,20.8006205 61.4711248,20.0297584 M55.8549477,11.0352231 C57.9775345,11.0352231 59.8494669,11.6940014 61.4711248,13.0107956 L61.4711248,4.99642183 C61.4711248,4.51453769 61.6283534,4.11576331 61.9431905,3.79971746 C62.2576478,3.48405285 62.6552768,3.3258393 63.1349382,3.3258393 C63.6043454,3.3258393 64.0015947,3.48405285 64.3270656,3.79971746 C64.6521567,4.11576331 64.815082,4.51453769 64.815082,4.99642183 L64.815082,20.0297584 C64.815082,22.5352509 63.9404502,24.6553124 62.1911865,26.3899428 C60.4202753,28.1463038 58.3083223,29.0242936 55.8549477,29.0242936 C53.3803054,29.0242936 51.2683524,28.1463038 49.5190886,26.3899428 C47.7694451,24.6343443 46.895193,22.5139016 46.895193,20.0297584 C46.895193,17.5459964 47.7694451,15.4259349 49.5190886,13.6695739 C51.2683524,11.9135942 53.3803054,11.0352231 55.8549477,11.0352231" id="Fill-5" fill="#6C6C6C" sketch:type="MSShapeGroup"></path>
                <path d="M82.1818983,29.0241793 C81.7018572,29.0241793 81.3072665,28.8636783 80.9977463,28.5422951 C80.6882261,28.2212932 80.528339,27.8305248 80.5177052,27.3699899 C79.7820726,27.9479459 79.0031451,28.3684508 78.1820621,28.6307422 C77.3602196,28.8934148 76.4700168,29.0241793 75.5099346,29.0241793 C74.3683178,29.0241793 73.2912636,28.8022991 72.2780123,28.3577762 C71.2643812,27.9136345 70.3791155,27.3112794 69.6218354,26.5507107 C68.8641756,25.7905232 68.2641242,24.9018587 67.8220611,23.8843359 C67.3792383,22.8675756 67.157827,21.7860049 67.157827,20.6400052 L67.157827,12.7056913 C67.157827,12.2455377 67.3203725,11.8521006 67.6458434,11.5253801 C67.9709346,11.1986596 68.3681838,11.03549 68.8379708,11.03549 C69.2963645,11.03549 69.6882968,11.1986596 70.0137677,11.5253801 C70.3392386,11.8521006 70.5017842,12.2455377 70.5017842,12.7056913 L70.5017842,20.6400052 C70.5017842,21.336526 70.6324283,21.9892045 70.8937165,22.5995657 C71.1550047,23.2099268 71.5123771,23.7428968 71.9658336,24.1977131 C72.4192902,24.6529106 72.9498419,25.011655 73.5578687,25.2739464 C74.1658954,25.536619 74.8164575,25.6673835 75.5099346,25.6673835 C76.1923981,25.6673835 76.838023,25.536619 77.4460498,25.2739464 C78.0540765,25.011655 78.5872867,24.6502419 79.0460602,24.1897071 C79.5044539,23.7295535 79.8644847,23.1965835 80.1257729,22.5915597 C80.3870611,21.9869171 80.5177052,21.336526 80.5177052,20.6400052 L80.5177052,12.7056913 C80.5177052,12.2455377 80.6802508,11.8521006 81.0057217,11.5253801 C81.3311926,11.1986596 81.7284418,11.03549 82.1978491,11.03549 C82.6562428,11.03549 83.0481751,11.1986596 83.3740257,11.5253801 C83.6991169,11.8521006 83.8620422,12.2455377 83.8620422,12.7056913 L83.8620422,27.353978 C83.8620422,27.8145128 83.6991169,28.2079499 83.3740257,28.5342891 C83.0481751,28.8610096 82.6509258,29.0241793 82.1818983,29.0241793" id="Fill-7" fill="#6C6C6C" sketch:type="MSShapeGroup"></path>
                <path d="M94.3469527,29.9457827 C93.6694264,29.9457827 92.9919,29.8725851 92.3299446,29.7212338 C89.1352406,28.9904016 86.5565388,26.5062584 85.9131926,23.538706 C85.3963128,21.1533033 85.9280039,19.1277887 87.3726846,17.9817889 C89.3194336,16.4362522 91.4287282,16.8712442 92.6554155,17.9871262 C94.062498,19.2669403 94.3674608,21.3157104 93.3807941,22.8585784 C92.8707504,23.6565084 91.8126851,23.8871571 91.019326,23.3759176 C90.2248276,22.8639157 89.9943015,21.8025507 90.5043452,21.0053831 C90.6095441,20.8406886 90.4526952,20.6138523 90.3604088,20.5295988 C90.2810349,20.4575449 90.0398751,20.2390959 89.4922332,20.6733253 C89.1394182,20.9531536 89.0410553,21.8315247 89.253352,22.8090175 C89.6145222,24.4750252 91.1917458,25.9420269 93.0895033,26.3758752 C95.0400501,26.8223042 97.2822674,26.176488 98.537818,24.8059393 C99.5974024,23.6492649 100.033389,21.5021355 99.5514491,19.8113474 C99.1378693,18.3611202 98.0984132,17.1876713 96.0760882,15.8876515 C95.4297037,15.4717215 94.7134398,15.1034461 93.9554002,14.7138214 C92.3147534,13.8701429 90.6186588,12.9978716 89.3517149,11.4984647 C87.3776218,9.16186038 87.1501339,5.41772734 88.8325565,2.97437649 C90.4637088,0.605748191 93.9102065,-0.375557016 97.024777,0.641965749 C98.8287289,1.23097762 100.191377,2.47304924 100.861688,4.13943816 C101.553646,5.85881907 101.431737,7.82447939 100.527482,9.53204195 C100.084279,10.3684769 99.0486212,10.6852852 98.2161448,10.2415248 C97.3829089,9.79662074 97.0665527,8.75774868 97.5093755,7.9213137 C97.9320699,7.12338371 98.0004302,6.18973318 97.6928089,5.42420838 C97.4026575,4.70405083 96.8064039,4.17870561 95.967851,3.90497712 C94.3097344,3.36400117 92.4108376,3.81195518 91.6440631,4.92593102 C90.8396904,6.09404258 90.9862852,8.12832564 91.9581406,9.27928151 C92.7841607,10.2563931 94.1099704,10.9380457 95.5136349,11.6601094 C96.310412,12.0695584 97.1345332,12.4934945 97.9191574,12.9978716 C99.7686829,14.1873325 101.999507,15.9288252 102.8373,18.8670223 C103.645471,21.7030477 102.912496,25.1002546 101.053856,27.1288191 C99.4132094,28.9194914 96.8834991,29.9457827 94.3469527,29.9457827" id="Fill-9" fill="#F8B81C" sketch:type="MSShapeGroup"></path>
                <path d="M105.644553,28.3465678 L105.644553,13.7306863 C105.644553,13.2594768 105.807099,12.8610836 106.13257,12.5339819 C106.457661,12.2076426 106.849593,12.0440918 107.308746,12.0440918 C107.76714,12.0440918 108.159072,12.2076426 108.484543,12.5339819 C108.809634,12.8610836 108.977877,13.2594768 108.98851,13.7306863 L108.98851,28.3465678 C108.977877,28.8177773 108.809634,29.2165517 108.484543,29.5432722 C108.159072,29.8699927 107.76714,30.0331623 107.308746,30.0331623 C106.849593,30.0331623 106.457661,29.8699927 106.13257,29.5432722 C105.807099,29.2165517 105.644553,28.8177773 105.644553,28.3465678 M109.276383,8.8481782 C109.276383,9.39411024 109.084595,9.8599824 108.700638,10.2454135 C108.316681,10.6308445 107.85259,10.8233695 107.308746,10.8233695 C106.764522,10.8233695 106.300432,10.6308445 105.916475,10.2454135 C105.532518,9.8599824 105.34073,9.39411024 105.34073,8.8481782 C105.34073,8.30186493 105.532518,7.83599276 105.916475,7.45056169 C106.300432,7.06513063 106.764522,6.87260571 107.308746,6.87260571 C107.85259,6.87260571 108.316681,7.06513063 108.700638,7.45056169 C109.084595,7.83599276 109.276383,8.30186493 109.276383,8.8481782" id="Fill-12" fill="#F8B81C" sketch:type="MSShapeGroup"></path>
                <path d="M120.490774,15.4010782 C119.701213,15.4010782 118.9652,15.5512857 118.282737,15.8509384 C117.599893,16.150591 117.007817,16.555084 116.506888,17.0632735 C116.0052,17.5722255 115.607951,18.1692433 115.314761,18.854327 C115.021192,19.539792 114.874597,20.2675743 114.874597,21.0388177 C114.874597,21.8096798 115.021192,22.5378433 115.314761,23.222927 C115.607951,23.908392 116.0052,24.5054098 116.506888,25.0139806 C117.007817,25.5225514 117.599893,25.9270443 118.282737,26.2263157 C118.9652,26.5263496 119.701213,26.6761759 120.490774,26.6761759 C121.269322,26.6761759 122.000017,26.5263496 122.68286,26.2263157 C123.365324,25.9270443 123.960058,25.5198827 124.466684,25.0059746 C124.97331,24.4916853 125.373217,23.8950487 125.666787,23.214921 C125.959976,22.5351747 126.106951,21.8096798 126.106951,21.0388177 C126.106951,20.2675743 125.959976,19.5424607 125.666787,18.862333 C125.373217,18.1825867 124.97331,17.5855688 124.466684,17.0716607 C123.960058,16.5573714 123.365324,16.150591 122.68286,15.8509384 C122.000017,15.5512857 121.269322,15.4010782 120.490774,15.4010782 L120.490774,15.4010782 Z M126.106951,28.0573992 C124.506941,29.3745746 122.634628,30.0329717 120.490774,30.0329717 C118.016132,30.0329717 115.903799,29.1553631 114.154915,27.3990021 C112.405271,25.6430224 111.530639,23.5229609 111.530639,21.0388177 C111.530639,18.5546744 112.405271,16.4346129 114.154915,14.678252 C115.903799,12.9222723 118.016132,12.0442824 120.490774,12.0442824 C122.944148,12.0442824 125.056101,12.9222723 126.826633,14.678252 C128.575897,16.4346129 129.450908,18.5546744 129.450908,21.0388177 L129.450908,29.9689238 C129.450908,30.7397859 129.333177,31.4675682 129.098853,32.1530332 C128.864149,32.8381169 128.538678,33.4675399 128.12282,34.0405398 C127.706582,34.6127772 127.215907,35.1297352 126.650795,35.5902701 C126.085304,36.0504237 125.474618,36.4389046 124.818739,36.7545692 C124.16286,37.0702339 123.477359,37.3142258 122.762614,37.4854014 C122.047869,37.6565771 121.333124,37.7423555 120.618759,37.7423555 C119.765015,37.7423555 118.927982,37.6325591 118.106899,37.4133476 C117.285056,37.1937548 116.506888,36.869703 115.770876,36.4415733 C115.034864,36.0130624 114.359996,35.4831423 113.746652,34.8514319 C113.133308,34.2193402 112.613011,33.5129072 112.186898,32.7313704 C112.015997,32.4847098 111.930927,32.1854383 111.930927,31.8320312 C111.930927,31.3501471 112.090814,30.9509915 112.410588,30.6353269 C112.730742,30.319281 113.13065,30.1614487 113.610691,30.1614487 C113.930845,30.1614487 114.194792,30.2361712 114.402911,30.3863788 C114.61065,30.5362051 114.895864,30.8682629 115.258933,31.382171 C115.621243,31.8960791 115.941017,32.2868475 116.218636,32.5548574 C117.434689,33.7751985 118.901017,34.3855597 120.618759,34.3855597 C122.346756,34.3855597 123.808147,33.7858732 125.002932,32.5868814 C125.738945,31.6875422 126.106951,30.8145085 126.106951,29.9689238 L126.106951,28.0573992 Z" id="Fill-14" fill="#F8B81C" sketch:type="MSShapeGroup"></path>
                <path d="M135.083568,13.698548 C136.502044,12.5960092 138.171554,12.0443586 140.091718,12.0443586 C141.211687,12.0443586 142.275449,12.2639514 143.283384,12.7027557 C144.291698,13.1419413 145.179622,13.7385779 145.947536,14.4934281 C146.71545,15.2486595 147.323477,16.137324 147.771616,17.1598028 C148.219376,18.1826629 148.443446,19.2718583 148.443446,20.4281515 L148.443446,28.3464534 C148.443446,28.8180442 148.2809,29.2168185 147.95543,29.5431578 C147.629959,29.8698783 147.238026,30.0330479 146.779633,30.0330479 C146.309846,30.0330479 145.912596,29.8698783 145.587505,29.5431578 C145.262034,29.2168185 145.099489,28.8180442 145.099489,28.3464534 L145.099489,20.4281515 C145.099489,19.743449 144.965806,19.0953454 144.699581,18.4849842 C144.432596,17.874623 144.072945,17.3420343 143.619489,16.8868368 C143.166032,16.4316393 142.63548,16.0706074 142.027454,15.8025975 C141.419427,15.53535 140.773802,15.4011544 140.091718,15.4011544 C139.397861,15.4011544 138.749958,15.5323001 138.147628,15.7945915 C137.544918,16.0572641 137.013986,16.4186772 136.555593,16.8788308 C136.096819,17.3393657 135.736788,17.874623 135.4755,18.4849842 C135.213832,19.0953454 135.083568,19.743449 135.083568,20.4281515 L135.083568,28.3464534 C135.083568,28.8180442 134.920642,29.2168185 134.595551,29.5431578 C134.27008,29.8698783 133.878148,30.0330479 133.419375,30.0330479 C132.949967,30.0330479 132.552718,29.8698783 132.227627,29.5431578 C131.901776,29.2168185 131.739611,28.8180442 131.739611,28.3464534 L131.739611,13.7305719 C131.739611,13.2704183 131.901776,12.8743126 132.227627,12.5422548 C132.552718,12.2105782 132.949967,12.0443586 133.419375,12.0443586 C133.878148,12.0443586 134.27008,12.2105782 134.595551,12.5422548 C134.920642,12.8743126 135.083568,13.2597437 135.083568,13.698548" id="Fill-16" fill="#F8B81C" sketch:type="MSShapeGroup"></path>
            </g>
        </g>
    </g>
</svg>