<?xml version="1.0" encoding="UTF-8" standalone="no"?>
<svg width="40px" height="40px" viewBox="0 0 40 40" version="1.1" xmlns="http://www.w3.org/2000/svg" xmlns:xlink="http://www.w3.org/1999/xlink" xmlns:sketch="http://www.bohemiancoding.com/sketch/ns">
    <!-- Generator: Sketch 3.4.4 (17249) - http://www.bohemiancoding.com/sketch -->
    <title>Shape</title>
    <desc>Created with Sketch.</desc>
    <defs>
        <circle id="path-1" cx="20" cy="20" r="20"></circle>
    </defs>
    <g id="본게임" stroke="none" stroke-width="1" fill="none" fill-rule="evenodd" sketch:type="MSPage">
        <g id="Artboard-1-Copy-2" sketch:type="MSArtboardGroup" transform="translate(-1141.000000, -92.000000)">
            <g id="Shape" sketch:type="MSLayerGroup" transform="translate(1141.000000, 92.000000)">
                <mask id="mask-2" sketch:name="Mask" fill="white">
                    <use xlink:href="#path-1"></use>
                </mask>
                <use id="Mask" fill="#F8B81C" sketch:type="MSShapeGroup" xlink:href="#path-1"></use>
                <path d="M13.4360248,9.53043478 L13.4360248,9.73913043 L13.331677,9.73913043 L13.331677,10.0521739 L13.2273292,10.0521739 L13.2273292,10.3652174 L13.1229814,10.3652174 L13.1229814,10.7826087 L13.0186335,10.7826087 L13.0186335,11.3043478 L12.9142857,11.3043478 L12.9142857,16.5217391 L12.8099379,16.5217391 L12.8099379,16.7304348 L12.7055901,16.7304348 L12.7055901,16.8347826 L12.6012422,16.8347826 L12.6012422,17.0434783 L12.4968944,17.0434783 L12.4968944,17.2521739 L12.3925466,17.2521739 L12.3925466,17.5652174 L12.2881988,17.5652174 L12.2881988,18.1913043 L12.1838509,18.1913043 L12.1838509,18.4 L12.2881988,18.4 L12.2881988,19.026087 L12.3925466,19.026087 L12.3925466,19.3391304 L12.4968944,19.3391304 L12.4968944,19.5478261 L12.6012422,19.5478261 L12.6012422,19.7565217 L12.7055901,19.7565217 L12.7055901,19.8608696 L12.8099379,19.8608696 L12.8099379,20.0695652 L12.9142857,20.0695652 L12.9142857,20.173913 L13.0186335,20.173913 L13.0186335,20.2782609 L13.1229814,20.2782609 L13.1229814,20.3826087 L13.331677,20.3826087 L13.331677,20.4869565 L13.4360248,20.4869565 L13.4360248,20.8 L13.5403727,20.8 L13.5403727,21.2173913 L13.6447205,21.2173913 L13.6447205,21.426087 L13.7490683,21.426087 L13.7490683,21.7391304 L13.8534161,21.7391304 L13.8534161,22.0521739 L13.957764,22.0521739 L13.957764,22.2608696 L14.0621118,22.2608696 L14.0621118,22.4695652 L14.1664596,22.4695652 L14.1664596,22.6782609 L14.2708075,22.6782609 L14.2708075,22.8869565 L14.3751553,22.8869565 L14.3751553,23.0956522 L14.4795031,23.0956522 L14.4795031,23.3043478 L14.5838509,23.3043478 L14.5838509,23.5130435 L14.6881988,23.5130435 L14.6881988,23.6173913 L14.7925466,23.6173913 L14.7925466,23.826087 L14.8968944,23.826087 L14.8968944,23.9304348 L15.0012422,23.9304348 L15.0012422,24.1391304 L15.1055901,24.1391304 L15.1055901,24.2434783 L15.2099379,24.2434783 L15.2099379,24.3478261 L15.3142857,24.3478261 L15.3142857,24.5565217 L15.4186335,24.5565217 L15.4186335,24.6608696 L15.5229814,24.6608696 L15.5229814,24.7652174 L15.6273292,24.7652174 L15.6273292,24.8695652 L15.731677,24.8695652 L15.731677,24.973913 L15.8360248,24.973913 L15.8360248,25.1826087 L15.9403727,25.1826087 L15.9403727,26.4347826 L15.8360248,26.4347826 L15.8360248,26.6434783 L15.731677,26.6434783 L15.731677,26.7478261 L15.6273292,26.7478261 L15.6273292,26.9565217 L15.5229814,26.9565217 L15.5229814,27.0608696 L15.4186335,27.0608696 L15.4186335,27.1652174 L15.3142857,27.1652174 L15.3142857,27.2695652 L15.2099379,27.2695652 L15.2099379,27.373913 L15.1055901,27.373913 L15.1055901,27.4782609 L15.0012422,27.4782609 L15.0012422,27.5826087 L14.7925466,27.5826087 L14.7925466,27.6869565 L14.6881988,27.6869565 L14.6881988,27.7913043 L14.5838509,27.7913043 L14.5838509,27.8956522 L14.4795031,27.8956522 L14.4795031,28 L14.2708075,28 L14.2708075,28.1043478 L14.1664596,28.1043478 L14.1664596,28.2086957 L14.0621118,28.2086957 L14.0621118,28.3130435 L13.8534161,28.3130435 L13.8534161,28.4173913 L13.7490683,28.4173913 L13.7490683,28.5217391 L13.5403727,28.5217391 L13.5403727,28.626087 L13.4360248,28.626087 L13.4360248,28.7304348 L13.2273292,28.7304348 L13.2273292,28.8347826 L13.0186335,28.8347826 L13.0186335,28.9391304 L12.9142857,28.9391304 L12.9142857,29.0434783 L12.7055901,29.0434783 L12.7055901,29.1478261 L12.6012422,29.1478261 L12.6012422,29.2521739 L12.3925466,29.2521739 L12.3925466,29.3565217 L12.1838509,29.3565217 L12.1838509,29.4608696 L12.0795031,29.4608696 L12.0795031,29.5652174 L11.8708075,29.5652174 L11.8708075,29.6695652 L11.6621118,29.6695652 L11.6621118,29.773913 L11.4534161,29.773913 L11.4534161,29.8782609 L11.2447205,29.8782609 L11.2447205,29.9826087 L11.1403727,29.9826087 L11.1403727,30.0869565 L10.931677,30.0869565 L10.931677,30.1913043 L10.7229814,30.1913043 L10.7229814,30.2956522 L10.5142857,30.2956522 L10.5142857,30.4 L10.3055901,30.4 L10.3055901,30.5043478 L10.0968944,30.5043478 L10.0968944,30.6086957 L9.88819876,30.6086957 L9.88819876,30.7130435 L9.67950311,30.7130435 L9.67950311,30.8173913 L9.57515528,30.8173913 L9.57515528,30.9217391 L9.36645963,30.9217391 L9.36645963,31.026087 L9.15776398,31.026087 L9.15776398,31.1304348 L8.8447205,31.1304348 L8.8447205,31.2347826 L8.63602484,31.2347826 L8.63602484,31.3391304 L8.42732919,31.3391304 L8.42732919,31.4434783 L8.21863354,31.4434783 L8.21863354,31.5478261 L8.00993789,31.5478261 L8.00993789,31.6521739 L7.80124224,31.6521739 L7.80124224,31.7565217 L7.59254658,31.7565217 L7.59254658,31.8608696 L7.38385093,31.8608696 L7.38385093,31.9652174 L7.17515528,31.9652174 L7.17515528,32.0695652 L6.8621118,32.0695652 L6.8621118,32.173913 L6.65341615,32.173913 L6.65341615,32.2782609 L6.4447205,32.2782609 L6.4447205,32.3826087 L6.13167702,32.3826087 L6.13167702,32.4869565 L5.92298137,32.4869565 L5.92298137,32.5913043 L5.71428571,32.5913043 L5.71428571,32.6956522 L5.40124224,32.6956522 L5.40124224,32.8 L5.19254658,32.8 L5.19254658,32.9043478 L4.98385093,32.9043478 L4.98385093,33.0086957 L4.67080745,33.0086957 L4.67080745,33.1130435 L4.4621118,33.1130435 L4.4621118,33.2173913 L4.14906832,33.2173913 L4.14906832,33.3217391 L3.94037267,33.3217391 L3.94037267,33.426087 L3.73167702,33.426087 L3.73167702,33.5304348 L3.52298137,33.5304348 L3.52298137,33.6347826 L3.41863354,33.6347826 L3.41863354,33.7391304 L3.31428571,33.7391304 L3.31428571,33.9478261 L3.20993789,33.9478261 L3.20993789,34.1565217 L3.10559006,34.1565217 L3.10559006,39.0608696 L3.20993789,39.0608696 L3.20993789,39.373913 L3.31428571,39.373913 L3.31428571,39.4782609 L3.41863354,39.4782609 L3.41863354,39.5826087 L3.52298137,39.5826087 L3.52298137,39.6869565 L3.62732919,39.6869565 L3.62732919,39.7913043 L3.73167702,39.7913043 L3.73167702,39.8956522 L4.14906832,39.8956522 L4.14906832,40 L36.0795031,40 L36.0795031,39.8956522 L36.3925466,39.8956522 L36.3925466,39.7913043 L36.6012422,39.7913043 L36.6012422,39.6869565 L36.7055901,39.6869565 L36.7055901,39.5826087 L36.8099379,39.5826087 L36.8099379,39.373913 L36.9142857,39.373913 L36.9142857,39.2695652 L37.0186335,39.2695652 L37.0186335,34.0521739 L36.9142857,34.0521739 L36.9142857,33.8434783 L36.8099379,33.8434783 L36.8099379,33.7391304 L36.7055901,33.7391304 L36.7055901,33.6347826 L36.6012422,33.6347826 L36.6012422,33.5304348 L36.4968944,33.5304348 L36.4968944,33.426087 L36.2881988,33.426087 L36.2881988,33.3217391 L35.9751553,33.3217391 L35.9751553,33.2173913 L35.7664596,33.2173913 L35.7664596,33.1130435 L35.4534161,33.1130435 L35.4534161,33.0086957 L35.2447205,33.0086957 L35.2447205,32.9043478 L35.0360248,32.9043478 L35.0360248,32.8 L34.7229814,32.8 L34.7229814,32.6956522 L34.5142857,32.6956522 L34.5142857,32.5913043 L34.2012422,32.5913043 L34.2012422,32.4869565 L33.9925466,32.4869565 L33.9925466,32.3826087 L33.7838509,32.3826087 L33.7838509,32.2782609 L33.5751553,32.2782609 L33.5751553,32.173913 L33.2621118,32.173913 L33.2621118,32.0695652 L33.0534161,32.0695652 L33.0534161,31.9652174 L32.8447205,31.9652174 L32.8447205,31.8608696 L32.531677,31.8608696 L32.531677,31.7565217 L32.3229814,31.7565217 L32.3229814,31.6521739 L32.1142857,31.6521739 L32.1142857,31.5478261 L31.9055901,31.5478261 L31.9055901,31.4434783 L31.6968944,31.4434783 L31.6968944,31.3391304 L31.4881988,31.3391304 L31.4881988,31.2347826 L31.2795031,31.2347826 L31.2795031,31.1304348 L31.0708075,31.1304348 L31.0708075,31.026087 L30.8621118,31.026087 L30.8621118,30.9217391 L30.6534161,30.9217391 L30.6534161,30.8173913 L30.4447205,30.8173913 L30.4447205,30.7130435 L30.2360248,30.7130435 L30.2360248,30.6086957 L30.0273292,30.6086957 L30.0273292,30.5043478 L29.8186335,30.5043478 L29.8186335,30.4 L29.6099379,30.4 L29.6099379,30.2956522 L29.4012422,30.2956522 L29.4012422,30.1913043 L29.1925466,30.1913043 L29.1925466,30.0869565 L29.0881988,30.0869565 L29.0881988,29.9826087 L28.8795031,29.9826087 L28.8795031,29.8782609 L28.6708075,29.8782609 L28.6708075,29.773913 L28.4621118,29.773913 L28.4621118,29.6695652 L28.2534161,29.6695652 L28.2534161,29.5652174 L28.1490683,29.5652174 L28.1490683,29.4608696 L27.9403727,29.4608696 L27.9403727,29.3565217 L27.8360248,29.3565217 L27.8360248,29.2521739 L27.6273292,29.2521739 L27.6273292,29.1478261 L27.4186335,29.1478261 L27.4186335,29.0434783 L27.3142857,29.0434783 L27.3142857,28.9391304 L27.1055901,28.9391304 L27.1055901,28.8347826 L26.8968944,28.8347826 L26.8968944,28.7304348 L26.7925466,28.7304348 L26.7925466,28.626087 L26.5838509,28.626087 L26.5838509,28.5217391 L26.4795031,28.5217391 L26.4795031,28.4173913 L26.2708075,28.4173913 L26.2708075,28.3130435 L26.1664596,28.3130435 L26.1664596,28.2086957 L26.0621118,28.2086957 L26.0621118,28.1043478 L25.8534161,28.1043478 L25.8534161,28 L25.7490683,28 L25.7490683,27.8956522 L25.6447205,27.8956522 L25.6447205,27.7913043 L25.4360248,27.7913043 L25.4360248,27.6869565 L25.331677,27.6869565 L25.331677,27.5826087 L25.2273292,27.5826087 L25.2273292,27.4782609 L25.1229814,27.4782609 L25.1229814,27.373913 L25.0186335,27.373913 L25.0186335,27.2695652 L24.9142857,27.2695652 L24.9142857,27.1652174 L24.8099379,27.1652174 L24.8099379,27.0608696 L24.7055901,27.0608696 L24.7055901,26.9565217 L24.6012422,26.9565217 L24.6012422,26.8521739 L24.4968944,26.8521739 L24.4968944,26.7478261 L24.3925466,26.7478261 L24.3925466,26.5391304 L24.2881988,26.5391304 L24.2881988,26.3304348 L24.1838509,26.3304348 L24.1838509,25.1826087 L24.2881988,25.1826087 L24.2881988,25.0782609 L24.3925466,25.0782609 L24.3925466,24.973913 L24.4968944,24.973913 L24.4968944,24.8695652 L24.6012422,24.8695652 L24.6012422,24.6608696 L24.7055901,24.6608696 L24.7055901,24.5565217 L24.8099379,24.5565217 L24.8099379,24.4521739 L24.9142857,24.4521739 L24.9142857,24.3478261 L25.0186335,24.3478261 L25.0186335,24.1391304 L25.1229814,24.1391304 L25.1229814,24.0347826 L25.2273292,24.0347826 L25.2273292,23.826087 L25.331677,23.826087 L25.331677,23.7217391 L25.4360248,23.7217391 L25.4360248,23.5130435 L25.5403727,23.5130435 L25.5403727,23.3043478 L25.6447205,23.3043478 L25.6447205,23.2 L25.7490683,23.2 L25.7490683,22.9913043 L25.8534161,22.9913043 L25.8534161,22.7826087 L25.957764,22.7826087 L25.957764,22.573913 L26.0621118,22.573913 L26.0621118,22.3652174 L26.1664596,22.3652174 L26.1664596,22.1565217 L26.2708075,22.1565217 L26.2708075,21.8434783 L26.3751553,21.8434783 L26.3751553,21.6347826 L26.4795031,21.6347826 L26.4795031,21.3217391 L26.5838509,21.3217391 L26.5838509,21.0086957 L26.6881988,21.0086957 L26.6881988,20.5913043 L26.7925466,20.5913043 L26.7925466,20.4869565 L26.8968944,20.4869565 L26.8968944,20.3826087 L27.0012422,20.3826087 L27.0012422,20.2782609 L27.1055901,20.2782609 L27.1055901,20.173913 L27.2099379,20.173913 L27.2099379,20.0695652 L27.3142857,20.0695652 L27.3142857,19.9652174 L27.4186335,19.9652174 L27.4186335,19.8608696 L27.5229814,19.8608696 L27.5229814,19.6521739 L27.6273292,19.6521739 L27.6273292,19.4434783 L27.731677,19.4434783 L27.731677,19.2347826 L27.8360248,19.2347826 L27.8360248,18.8173913 L27.9403727,18.8173913 L27.9403727,17.773913 L27.8360248,17.773913 L27.8360248,17.3565217 L27.731677,17.3565217 L27.731677,17.1478261 L27.6273292,17.1478261 L27.6273292,16.9391304 L27.5229814,16.9391304 L27.5229814,16.7304348 L27.4186335,16.7304348 L27.4186335,16.626087 L27.3142857,16.626087 L27.3142857,11.826087 L27.2099379,11.826087 L27.2099379,10.9913043 L27.1055901,10.9913043 L27.1055901,10.573913 L27.0012422,10.573913 L27.0012422,10.1565217 L26.8968944,10.1565217 L26.8968944,9.84347826 L26.7925466,9.84347826 L26.7925466,9.63478261 L26.6881988,9.63478261 L26.6881988,9.42608696 L26.5838509,9.42608696 L26.5838509,9.2173913 L26.4795031,9.2173913 L26.4795031,9.00869565 L26.3751553,9.00869565 L26.3751553,8.8 L26.2708075,8.8 L26.2708075,8.69565217 L26.1664596,8.69565217 L26.1664596,8.48695652 L26.0621118,8.48695652 L26.0621118,8.3826087 L25.957764,8.3826087 L25.957764,8.27826087 L25.8534161,8.27826087 L25.8534161,8.06956522 L25.7490683,8.06956522 L25.7490683,7.96521739 L25.6447205,7.96521739 L25.6447205,7.86086957 L25.5403727,7.86086957 L25.5403727,7.75652174 L25.4360248,7.75652174 L25.4360248,7.65217391 L25.2273292,7.65217391 L25.2273292,7.54782609 L25.1229814,7.54782609 L25.1229814,7.44347826 L25.0186335,7.44347826 L25.0186335,7.33913043 L24.9142857,7.33913043 L24.9142857,7.23478261 L24.7055901,7.23478261 L24.7055901,7.13043478 L24.6012422,7.13043478 L24.6012422,7.02608696 L24.3925466,7.02608696 L24.3925466,6.92173913 L24.1838509,6.92173913 L24.1838509,6.8173913 L23.9751553,6.8173913 L23.9751553,6.71304348 L23.6621118,6.71304348 L23.6621118,6.60869565 L23.4534161,6.60869565 L23.4534161,6.50434783 L23.1403727,6.50434783 L23.1403727,6.4 L22.7229814,6.4 L22.7229814,6.29565217 L22.3055901,6.29565217 L22.3055901,6.19130435 L21.6795031,6.19130435 L21.6795031,6.08695652 L18.5490683,6.08695652 L18.5490683,6.19130435 L17.9229814,6.19130435 L17.9229814,6.29565217 L17.5055901,6.29565217 L17.5055901,6.4 L17.0881988,6.4 L17.0881988,6.50434783 L16.7751553,6.50434783 L16.7751553,6.60869565 L16.4621118,6.60869565 L16.4621118,6.71304348 L16.2534161,6.71304348 L16.2534161,6.8173913 L16.0447205,6.8173913 L16.0447205,6.92173913 L15.8360248,6.92173913 L15.8360248,7.02608696 L15.731677,7.02608696 L15.731677,7.13043478 L15.5229814,7.13043478 L15.5229814,7.23478261 L15.3142857,7.23478261 L15.3142857,7.33913043 L15.2099379,7.33913043 L15.2099379,7.44347826 L15.1055901,7.44347826 L15.1055901,7.54782609 L15.0012422,7.54782609 L15.0012422,7.65217391 L14.7925466,7.65217391 L14.7925466,7.75652174 L14.6881988,7.75652174 L14.6881988,7.86086957 L14.5838509,7.86086957 L14.5838509,7.96521739 L14.4795031,7.96521739 L14.4795031,8.06956522 L14.3751553,8.06956522 L14.3751553,8.17391304 L14.2708075,8.17391304 L14.2708075,8.3826087 L14.1664596,8.3826087 L14.1664596,8.48695652 L14.0621118,8.48695652 L14.0621118,8.59130435 L13.957764,8.59130435 L13.957764,8.8 L13.8534161,8.8 L13.8534161,8.90434783 L13.7490683,8.90434783 L13.7490683,9.11304348 L13.6447205,9.11304348 L13.6447205,9.32173913 L13.5403727,9.32173913 L13.5403727,9.53043478 L13.4360248,9.53043478 L13.4360248,9.53043478 Z" fill="#EE8410" sketch:type="MSShapeGroup" mask="url(#mask-2)"></path>
            </g>
        </g>
    </g>
</svg>